<svg xmlns="http://www.w3.org/2000/svg" width="294.119" height="248.085" viewBox="0 0 294.119 248.085">
  <g id="Grupo_232" data-name="Grupo 232" transform="translate(-286.85 -183.87)">
    <g id="Grupo_19" data-name="Grupo 19" transform="translate(286.85 183.87)">
      <path id="Trazado_1" data-name="Trazado 1" d="M1500.01,292.864c.052-.147,1.3-2.281,2.911-4.6,7.5-10.8,18.61-21.206,31.644-20.815l.009-.079a28.339,28.339,0,0,0-16.736,3.72c-8.362,4.508-16.509,13.1-20.967,19.7Z" transform="translate(-1314.958 -254.634)" fill="#f7cc7f"/>
      <path id="Trazado_2" data-name="Trazado 2" d="M1705.387,202.661l.882-6.073-4.5-4.169a.843.843,0,0,1,.43-1.45l6.048-1.038,2.574-5.571a.843.843,0,0,1,1.512-.039l2.856,5.431,6.094.726a.843.843,0,0,1,.5,1.426L1717.5,196.3l1.193,6.02a.843.843,0,0,1-1.2.92l-5.5-2.715-5.357,2.994A.843.843,0,0,1,1705.387,202.661Z" transform="translate(-1488.672 -183.87)" fill="#f7cc7f"/>
      <path id="Trazado_3" data-name="Trazado 3" d="M922.365,226.153l-.8,2.975,2.405,2.022-1.135,3.271,3.226,1.364-1.121,3.756,2.816,1.622-.488,3.79-1.434-.185.364-2.834-2.971-1.712,1.077-3.61-3.28-1.387,1.253-3.61-2.349-1.975.744-2.757-1.814-.974.684-1.274Z" transform="translate(-824.253 -218.478)" fill="#bc157c"/>
      <g id="Grupo_3" data-name="Grupo 3" transform="translate(41.727 245.945)">
        <path id="Trazado_6" data-name="Trazado 6" d="M795.881,1812.079H569.874a1.07,1.07,0,0,0-1.07,1.07h0a1.07,1.07,0,0,0,1.07,1.07H795.881a1.07,1.07,0,0,0,1.07-1.07h0A1.07,1.07,0,0,0,795.881,1812.079Z" transform="translate(-568.804 -1812.079)" fill="#fff"/>
      </g>
      <path id="Trazado_8" data-name="Trazado 8" d="M1932.156,613.384l-1.631,4.066-6.832-1.9-3.118,5.651-5.346-.587-.3,2.706,7.149.786,2.955-5.355,7.107,1.979,2.455-6.118Z" transform="translate(-1669.869 -548.505)" fill="#bc157c"/>
      <path id="Trazado_11" data-name="Trazado 11" d="M368.561,859.206l-4.159.422-1.418-6.617-6.157-.133-1.871-4.778-2.419.947,2.5,6.391,5.835.126,1.476,6.883,6.258-.635Z" transform="translate(-319.366 -764.241)" fill="#bc157c"/>
      <g id="Grupo_6" data-name="Grupo 6" transform="translate(220.451 58.77)">
        <path id="Trazado_12" data-name="Trazado 12" d="M1754.887,577.221l2.612.861s4.14-1.342,4.548-2.185.523-2.891,1.112-2.947a1.784,1.784,0,0,1,2,1.537c.2,1.017-1.293,3.957-1.06,4.27a14.279,14.279,0,0,0,2.725,1.109,2.034,2.034,0,0,1,1.347,1.642v0a1.12,1.12,0,0,1-.7,1.2l-.751.29.24.776a1.12,1.12,0,0,1-.708,1.389l-.581.195.186.472a1.119,1.119,0,0,1-.723,1.481l-.508.148.021.136a1.119,1.119,0,0,1-.815,1.252l-.5.132-6.954-2.3a4.955,4.955,0,0,1-1.763-1.024l-2.31-1.219a.574.574,0,0,1-.269-.7l2.141-6.166A.572.572,0,0,1,1754.887,577.221Z" transform="translate(-1751.997 -572.942)" fill="#fae0b2"/>
      </g>
      <path id="Trazado_13" data-name="Trazado 13" d="M500.537,495.252c-.058-.164-1.451-2.547-3.25-5.135-8.368-12.056-20.776-23.675-35.327-23.238l-.01-.089a31.637,31.637,0,0,1,18.684,4.153c9.335,5.033,18.431,14.622,23.407,21.994Z" transform="translate(-436.362 -423.917)" fill="#f7cc7f"/>
      <path id="Trazado_14" data-name="Trazado 14" d="M379,394.55l-.984-6.78,5.027-4.655a.941.941,0,0,0-.48-1.619l-6.752-1.159-2.873-6.219a.942.942,0,0,0-1.688-.043l-3.189,6.064-6.8.811a.941.941,0,0,0-.563,1.592l4.781,4.906-1.331,6.72a.941.941,0,0,0,1.34,1.027l6.144-3.031,5.98,3.343A.941.941,0,0,0,379,394.55Z" transform="translate(-350.176 -344.917)" fill="#f7cc7f"/>
      <path id="Trazado_16" data-name="Trazado 16" d="M292.621,622.047l1.588-2.682-1.309-2.828a.428.428,0,0,1,.482-.6l3.041.681,2.285-2.119a.428.428,0,0,1,.717.274l.292,3.1,2.721,1.518a.428.428,0,0,1-.039.767l-2.86,1.236-.6,3.057a.428.428,0,0,1-.741.2l-2.06-2.339-3.094.371A.428.428,0,0,1,292.621,622.047Z" transform="translate(-292.56 -549.357)" fill="#466eb6"/>
      <path id="Trazado_17" data-name="Trazado 17" d="M2167.346,948.539l-3.808-.307-.52,3.523-3.765-.137-.912,3.305-2.835.358.181,1.435,3.791-.479.864-3.133,3.917.143.511-3.465,3.452.279Z" transform="translate(-1874.103 -832.773)" fill="#f48c7f"/>
      <path id="Trazado_18" data-name="Trazado 18" d="M829.612,323.63l-.233-3.814-3.561-.018-.395-3.747-3.4-.437-.754-2.756-1.4.382,1.008,3.686,3.223.414.411,3.9,3.5.018.211,3.456Z" transform="translate(-740.222 -293.374)" fill="#bc157c"/>
      <path id="Trazado_19" data-name="Trazado 19" d="M327.779,1107.77l2.879,1.1,2.255-2.189,3.139,1.46,1.683-3.071,3.623,1.495,1.9-2.637,3.721.868-.328,1.408-2.782-.649-2,2.783-3.483-1.437-1.711,3.123-3.464-1.612-2.2,2.137-2.668-1.019-1.153,1.706-1.2-.81Z" transform="translate(-320.935 -964.951)" fill="#f7cc7f"/>
      <path id="Trazado_20" data-name="Trazado 20" d="M1445.641,326.423l-.187,2.32-3.766.112-.691,3.358-2.8.545.276,1.42,3.751-.729.655-3.183,3.918-.117.281-3.491Z" transform="translate(-1265.142 -304.89)" fill="#bc157c"/>
      <g id="Grupo_8" data-name="Grupo 8" transform="translate(238.458 18.879)">
        <path id="Trazado_21" data-name="Trazado 21" d="M1889.649,311.886a10.9,10.9,0,1,1-15.413.321A10.9,10.9,0,0,1,1889.649,311.886Z" transform="translate(-1871.203 -308.852)" fill="#fff3d9"/>
        <path id="Trazado_22" data-name="Trazado 22" d="M1907.491,338.77l-4.638,1.426-1.455,4.629a.473.473,0,0,1-.838.13l-2.789-3.971-4.853.047a.473.473,0,0,1-.383-.757l2.914-3.88-1.544-4.6a.473.473,0,0,1,.6-.6l4.591,1.573,3.9-2.89a.473.473,0,0,1,.754.387l-.077,4.852,3.953,2.814A.473.473,0,0,1,1907.491,338.77Z" transform="translate(-1889.231 -326.623)" fill="#fed333"/>
      </g>
      <path id="Trazado_23" data-name="Trazado 23" d="M2166.469,664.152l2.556-.154a.378.378,0,0,0,.246-.6l-1.628-2.131.7-2.713a.341.341,0,0,0-.444-.433l-2.38,1.079-2.122-1.523a.342.342,0,0,0-.521.338l.158,2.8-2.014,1.771a.378.378,0,0,0,.123.641l2.477.65.878,2.618a.322.322,0,0,0,.6.059Z" transform="translate(-1878.677 -586.053)" fill="#f47458"/>
      <path id="Trazado_24" data-name="Trazado 24" d="M908.932,800.422s4.582-8.816,5.293-12.053,3.1-19.524,2.965-20.585c-.254-2-2.884-3.3-2.4-4.193s2.972-1.169,3.821-1.092a7.678,7.678,0,0,1,3.286,1.173c.731.6-.821,20.135-1.285,24.341s-6.156,17.156-6.156,17.156Z" transform="translate(-815.828 -675.085)" fill="#fff" stroke="#707070" stroke-width="1"/>
      <path id="Trazado_25" data-name="Trazado 25" d="M992.969,767.931c-.1.064-.486.177-.576.259l-.7.223a4.215,4.215,0,0,1,2.879,1.1A4.876,4.876,0,0,0,992.969,767.931Z" transform="translate(-886.083 -679.707)" fill="#f47257"/>
      <path id="Trazado_26" data-name="Trazado 26" d="M1540.1,762.158a4.877,4.877,0,0,0,1.224-2.777l.358-1.155c-.272-.126-5.66-1.148-7.294-1.266a2.984,2.984,0,0,0-.245,1.225c.182,1.348,1.489,10.106,1.489,10.106l4.667.308S1539.52,763.407,1540.1,762.158Z" transform="translate(-1346.592 -670.394)" fill="#f7a491"/>
      <path id="Trazado_27" data-name="Trazado 27" d="M1549.167,762.441a6.478,6.478,0,0,0-2.033,1.726s-2.563-1.815-2.446-2.347c.156-.706,2.794.739,2.794.739Z" transform="translate(-1355.548 -674.355)" fill="#f47458"/>
      <path id="Trazado_28" data-name="Trazado 28" d="M1707.043,1614.938s6.279,4.526,7.267,5.877c1.424,1.945-10.637,5.583-9.321,3.306.3-.524,1.171-2.286,1.209-2.46.2-.927-2.356-3.425-2.356-3.425Z" transform="translate(-1490.665 -1398.772)" fill="#f7a491"/>
      <path id="Trazado_29" data-name="Trazado 29" d="M1681.51,1646.315l4.263-6.025a11.62,11.62,0,0,0,5.395-3.692,9.988,9.988,0,0,1,3.966,2.969,69.536,69.536,0,0,1-7.252,6.538,20.147,20.147,0,0,1-6.21,3.526C1678.07,1650.849,1681.51,1646.315,1681.51,1646.315Z" transform="translate(-1470.448 -1417.16)" fill="#a01069"/>
      <path id="Trazado_30" data-name="Trazado 30" d="M1993.914,846.355s-1.624,2.678-1.8,2.515c-.139-.126.83-1.536,1.519-3.246.177-.44.35-.874.507-1.274.41-1.051-.1-1.594-.695-.561a11.644,11.644,0,0,0-.728,1.451,9.631,9.631,0,0,1-.76,1.321,12.654,12.654,0,0,1-.792,1.356c-.028-.047-.226.05-.052-.423.209-.568.912-1.679,1.157-2.537.139-.486.49-1.486.49-1.486a10.2,10.2,0,0,0,.17-1.651c-.467-.243-.943.81-1.048,1.494a7.827,7.827,0,0,0-.624,1.467s-1.154,2-1.429,1.843a26.6,26.6,0,0,1,.81-2.746c.335-1.272.472-2.608.238-2.708-.4-.171-.914,1.2-.914,1.2s-.313.982-.441,1.3c-.15.373-.682,1.458-.682,1.458s-2.078,3.668-2.325,3.5a1.815,1.815,0,0,1-.6-1.125c.049-.271.392-.726.441-1a.673.673,0,0,0-.432-.744c-.319-.08-1.044,1.149-1.044,1.149a4.675,4.675,0,0,0-.6,1.806,6.039,6.039,0,0,0,.384,3.024,56.966,56.966,0,0,1-3.236,5.06l-.061.071,3.817,2.778c1.273-2.071,2.263-3.694,2.553-4.2,0,0,1.915-1.638,3.086-2.707a13.877,13.877,0,0,0,2.114-2.958,14.648,14.648,0,0,0,1.632-3.079C1995.177,845.153,1993.914,846.355,1993.914,846.355Z" transform="translate(-1726.269 -741.87)" fill="none" stroke="#a2a2a2" stroke-width="1"/>
      <path id="Trazado_31" data-name="Trazado 31" d="M1561.913,1300.782l-.994,4.911-24.966,22.709,17.871,18.086L1549,1351.42s-26.394-19.382-27.345-21.921c-1.465-3.91,18.92-29.812,18.92-29.812Z" transform="translate(-1335.931 -1131.139)" fill="#656565"/>
      <path id="Trazado_32" data-name="Trazado 32" d="M1892.323,1704.849s6.279,4.527,7.267,5.877c1.424,1.945-10.637,5.583-9.321,3.306.3-.524,1.171-2.286,1.209-2.46.2-.927-2.356-3.425-2.356-3.425Z" transform="translate(-1647.958 -1475.102)" fill="#f7a491"/>
      <path id="Trazado_33" data-name="Trazado 33" d="M1866.755,1736.99l4.264-6.025a10.861,10.861,0,0,0,5.565-3.583,9.179,9.179,0,0,1,3.8,2.859,69.56,69.56,0,0,1-7.252,6.538,20.146,20.146,0,0,1-6.209,3.526C1863.314,1741.524,1866.755,1736.99,1866.755,1736.99Z" transform="translate(-1627.711 -1494.232)" fill="#a01069"/>
      <path id="Trazado_34" data-name="Trazado 34" d="M1673.678,1311.1l.389,32.276,19.831,24.878-4.667,5.188s-24.557-20.418-27.248-26.278c-1.669-3.634-7.747-38.006-7.747-38.006Z" transform="translate(-1448.551 -1139.177)" fill="#88898d"/>
      <path id="Trazado_35" data-name="Trazado 35" d="M1648.927,1051.518c2.031-4.583,1.8-37.437,9.7-45.133,2.78.47,4.763.733,5.228.855.412,3.385.866,15.8,1.144,27.186.186,7.583-.006,15.535.928,19.727C1666.5,1056.751,1647.072,1055.7,1648.927,1051.518Z" transform="translate(-1443.938 -882.142)" fill="#bc157c"/>
      <path id="Trazado_36" data-name="Trazado 36" d="M1354.32,1116.219c-4.618.265-6.563,1-7.984.728s-5.208-1.624-5.141-3.044c5.073-1.015,13.934.557,13.934.557C1354.521,1117.421,1354.32,1116.219,1354.32,1116.219Z" transform="translate(-1182.796 -973.13)" fill="none" stroke="#a2a2a2" stroke-width="1"/>
      <path id="Trazado_37" data-name="Trazado 37" d="M1461.914,1013.09s-2.05,10.071-4.438,11.8-14.5,7.818-15.239,7.775c-3.663-.212-21.176-.927-21.176-.927l.54-5.616,19.738-1.6s14.292-9.371,16.217-10.847C1458.91,1012.822,1461.914,1013.09,1461.914,1013.09Z" transform="translate(-1250.598 -887.8)" fill="#50bfa5"/>
      <path id="Trazado_38" data-name="Trazado 38" d="M1623.691,1053.429a9.948,9.948,0,0,1-3.614-.6s-.776-13.185,3.007-32.739c1.426-7.371,1.465-11.845,4.379-12.979a16.592,16.592,0,0,1,6.72-1.011c-7.741,21.9-7.768,38.762-8.864,43.651C1624.769,1052.2,1624.29,1053.445,1623.691,1053.429Z" transform="translate(-1419.497 -881.858)" fill="#50bfa5"/>
      <path id="Trazado_39" data-name="Trazado 39" d="M1714.631,956.463l-.811,3.309s-.185,2.881,1.152,3.14c1.613.313,4.009-2.1,4.009-2.1l1.388-9.332Z" transform="translate(-1499.128 -835.53)" fill="#f7a491"/>
      <path id="Trazado_40" data-name="Trazado 40" d="M1714.631,956.463l-.811,3.309s-.185,2.881,1.152,3.14c1.613.313,4.009-2.1,4.009-2.1l1.388-9.332Z" transform="translate(-1499.128 -835.53)" fill="#fff" stroke="#bc157c" stroke-width="1"/>
      <path id="Trazado_41" data-name="Trazado 41" d="M1721.558,951.763l-5.724,4.941-.606,2.472C1717.416,958.65,1720.536,956.242,1721.558,951.763Z" transform="translate(-1500.331 -835.771)" fill="#bc157c"/>
      <path id="Trazado_42" data-name="Trazado 42" d="M1693.963,894.92a3.381,3.381,0,0,0-3.117,2.338,29.386,29.386,0,0,0-1.249,4.791c-.606,3.589,1.438,6.874,3.216,7.136s6.014-.916,6.951-6c.4-2.179.93-5.037-.862-6.539A8.056,8.056,0,0,0,1693.963,894.92Z" transform="translate(-1478.478 -787.514)" fill="#fff" stroke="#bc157c" stroke-width="1"/>
      <path id="Trazado_43" data-name="Trazado 43" d="M1697.821,880.909s6.269-5.586,6.543-9.951-3.757-6.7-7.2-6.824a23.392,23.392,0,0,0-4.218.218c-3.453.435-5.691,1.966-4.9,4.795,1.057,3.8,8.224.594,9.69,1.773,1.209.973-.751,3.313.423,4.206,1.1.839.542.555.176,2.15A28.18,28.18,0,0,0,1697.821,880.909Z" transform="translate(-1477.114 -761.364)" fill="#bc157c"/>
      <path id="Trazado_44" data-name="Trazado 44" d="M1756.609,930.148c-.155,1.046-.795,1.818-1.428,1.724s-1.021-1.017-.865-2.063.795-1.818,1.428-1.724S1756.765,929.1,1756.609,930.148Z" transform="translate(-1533.485 -815.664)" fill="#fff"/>
      <path id="Trazado_45" data-name="Trazado 45" d="M1567.8,753.14c-.563-.984-1.4.027-.858,1.306a.277.277,0,0,1,0,.15,9.023,9.023,0,0,1-1.444,1.376s1.044,2.922,1.632,2.153a11.478,11.478,0,0,0,1.033-3.258Z" transform="translate(-1373.22 -666.815)" fill="#f7a491"/>
      <path id="Trazado_46" data-name="Trazado 46" d="M1780.483,929.5l-4.269-4.225s-8.111,11.64-12.225,13.659c-4,1.964-17.315,1.249-17.783,1.142-1.6-.364-6.5-1.706-6.5-1.706s-4.115,35.322,1.246,47.6c1.749,4.006,12.627,1.35,12.627,1.35s-3.357-14.707-3.536-16.632c-.171-1.841-1.1-16.428-.955-16.577.392-.393,15.241-3.629,19.311-6.721C1772.693,944.129,1780.483,929.5,1780.483,929.5Z" transform="translate(-1519.826 -813.286)" fill="#50bfa5"/>
      <g id="Grupo_10" data-name="Grupo 10" transform="translate(20.076 110.641)">
        <g id="Grupo_9" data-name="Grupo 9">
          <path id="Trazado_47" data-name="Trazado 47" d="M621.7,953.969c7.322,7.63,13.751.869,13.433.983a25.919,25.919,0,0,1,2.9-.14,11.869,11.869,0,0,0,10.066-7.439c6.527-.854,10.794-6.885,8.883-12.105,2.884-3.591,2-9.324-.734-13-.635-6.017-8.5-7.036-13.908-4.928a11.61,11.61,0,0,0-6.281,6.179c-5.216-.126-9.669,3.711-10.831,9.052C617.119,934.838,614.227,946.183,621.7,953.969Z" transform="translate(-588.39 -916.341)" fill="#bc157c"/>
          <path id="Trazado_48" data-name="Trazado 48" d="M939.179,1654.914a51.92,51.92,0,0,1-2.239,8.172c-.085.2-.9.954-1,1.164.439,5.024,3.641,8.009,6.646,10.136-.652-2.534-2.1-5.441-1.916-6a71.909,71.909,0,0,1,3.935-10.14C942.106,1657.96,941.216,1656.44,939.179,1654.914Z" transform="translate(-858.835 -1543.351)" fill="#f7a491"/>
          <path id="Trazado_49" data-name="Trazado 49" d="M799.142,1259.149l-17.371,11.861s8.46,5.493,11.361,8.258,18.421,15.3,18.674,15.936c.187.47-1.44,6.416-5.173,25.452,1.65,1.688,5.285,3.341,7.438,3.887,4.514-10.156,9.611-31.288,9.039-33.612C822.221,1287.324,799.142,1259.149,799.142,1259.149Z" transform="translate(-727.951 -1207.367)" fill="#656565"/>
          <path id="Trazado_50" data-name="Trazado 50" d="M560.736,1382.849a71.223,71.223,0,0,1,5.19,10.636c1.888-1.189,3.03-2.605,5.14-3.405-1.664-2.409-4.91-8.2-5.177-9.584-.633-3.272-1.376-3.755-1.376-3.755s-10.971,3.712-11.7,4.752S558.685,1380.849,560.736,1382.849Z" transform="translate(-533.529 -1307.197)" fill="#f7a491"/>
          <path id="Trazado_51" data-name="Trazado 51" d="M548.564,1372.33c.851,0-.074-3.845-.269-4.731a1.656,1.656,0,0,0-.941-1.331c-.389-.1-12.581,4.029-14.641,5.51a2.465,2.465,0,0,0-.428.489c-1.128,2.1,8.923,2.505,10.37,1.585C543.942,1373.035,544.736,1372.32,548.564,1372.33Z" transform="translate(-516.076 -1298.305)" fill="#a01069"/>
          <path id="Trazado_52" data-name="Trazado 52" d="M672.107,1254.348s-14.716-5.795-14.907-5.179c-1.524,4.908-6.265,3.325-9.079,11.969-1.178,3.62-2.106,13.176-2.9,20.263-.546,4.87-1.31,8.773-1.31,8.773a132.508,132.508,0,0,0-9.819-12.263c-.5-.56-5.675,4.364-5.675,4.364,10.213,20.252,17.663,23.115,19.291,22.565,7.38-2.495,17.163-36.441,17.147-36.439C666.053,1266.063,672.107,1254.348,672.107,1254.348Z" transform="translate(-597.76 -1198.856)" fill="#88898d"/>
          <path id="Trazado_53" data-name="Trazado 53" d="M477.105,1025.428s-17.568-.022-21.329-.24c-3.4-.2-16.906.147-17.434.086s-4.018-5.972-4.6-5.337,1.942,2.931,1.162,3.526-9.159-.738-9.048-.119c.208,1.159,5.1,1.012,5.092,1.571s-5.117-.314-5.463.615,4.917.379,5.127.794-4.882,1.174-4.361,2.038c.283.469,4.512-.783,4.491-.144s-3.106,2.095-2.727,2.6,2.421-1.564,4.211-1.589,3.072-.96,5.93-.176c1.411.387,12.183,1.7,21.285,2.482,9.331.8,16.98,1.051,16.98,1.051Z" transform="translate(-425.47 -1004.249)" fill="#fff" stroke="#88898d" stroke-width="1"/>
          <path id="Trazado_54" data-name="Trazado 54" d="M813.211,1017.339a60.214,60.214,0,0,0-.449-9.126c.853-2.93,2.669-9.181,3.321-10.409,0,0-3.059-5.878-6.19-5.838,0,0-3.2,7.208-5.67,8.5a6.159,6.159,0,0,1-1.243.371c-2.387-.017-10.729-.27-12.285-.3l.876,11.834a36.99,36.99,0,0,1,2.108,19.118c-.322,1.5,14.163,5.982,16.389,4.55C810.155,1035.983,812.74,1023.041,813.211,1017.339Z" transform="translate(-735.526 -980.543)" fill="#50bfa5"/>
          <path id="Trazado_55" data-name="Trazado 55" d="M743.092,1049.088c-1.539-.735-12.673-.367-12.673-.367s-1.556,7.754-.3,9.617c0,0,9.956,1.481,9.673,2.3Z" transform="translate(-683.686 -1028.646)" fill="#50bfa5"/>
          <path id="Trazado_56" data-name="Trazado 56" d="M831.6,996.918a57.743,57.743,0,0,1,1.367,5.832c.21,1.76,2.892,7.242,6.542,6.459s-.158-5.9-.873-7.516-2.648-8.128-2.648-8.128Z" transform="translate(-770.253 -981.9)" fill="#fff"/>
          <path id="Trazado_57" data-name="Trazado 57" d="M836.8,996.237c-.459-1.485-.811-2.672-.811-2.672l-4.389,3.353s.213.749.472,1.743A4.338,4.338,0,0,0,836.8,996.237Z" transform="translate(-770.253 -981.9)" fill="#bc157c"/>
          <path id="Trazado_58" data-name="Trazado 58" d="M794.907,931.488a6.2,6.2,0,0,0-2.585,3.428c-.671,2.33.219,8.3,5.223,9.675s7.093-3.4,6.013-7.09S800.176,929.151,794.907,931.488Z" transform="translate(-736.742 -928.666)" fill="#fff"/>
          <path id="Trazado_59" data-name="Trazado 59" d="M859.918,954.616c-.083,1-.621,1.765-1.2,1.717s-.984-.9-.9-1.892.621-1.765,1.2-1.717S860,953.62,859.918,954.616Z" transform="translate(-792.5 -947.226)" fill="#fff"/>
          <path id="Trazado_60" data-name="Trazado 60" d="M913.45,1708.973c-.315-.791-3.493,1.729-4.243,2.24a1.657,1.657,0,0,0-.885,1.369c.054.387,8.141,10.347,10.506,11.723a1.357,1.357,0,0,0,.832.08c1.314-.506-.825-8.656-2.549-10.265A10.456,10.456,0,0,1,913.45,1708.973Z" transform="translate(-835.384 -1589.115)" fill="#a01069"/>
          <path id="Trazado_61" data-name="Trazado 61" d="M785.255,932.965s-.806,6.69-2.947,7.926-1.194,4.185-1.194,4.185-2.058-6.849-.384-9.083A9.5,9.5,0,0,1,785.255,932.965Z" transform="translate(-726.51 -930.454)" fill="#bc157c"/>
          <path id="Trazado_62" data-name="Trazado 62" d="M789,986.087c.6.861.611,1.887.029,2.292s-1.539.034-2.137-.828-.611-1.887-.029-2.291S788.4,985.226,789,986.087Z" transform="translate(-731.912 -974.71)" fill="#fff"/>
        </g>
      </g>
      <g id="Grupo_18" data-name="Grupo 18" transform="translate(97.423 20.226)">
        <g id="Grupo_13" data-name="Grupo 13" transform="translate(0 38.053)">
          <g id="Grupo_11" data-name="Grupo 11" transform="translate(56.396 0.583)">
            <path id="Trazado_63" data-name="Trazado 63" d="M1324.9,573.559c-2.73.537-13.641,15.156-13.641,15.156l-.385,1.012s19.738-2.195,20.453-3.039C1333.259,584.41,1327.144,573.118,1324.9,573.559Zm-13.5,15.467c3.6-4.6,11.808-11.326,13.582-12.754a22.374,22.374,0,0,1,4.284,8.538C1327,585.278,1317.158,588.33,1311.4,589.027Z" transform="translate(-1310.876 -573.547)" fill="#82c7e6"/>
          </g>
          <g id="Grupo_12" data-name="Grupo 12" transform="translate(30.161)">
            <path id="Trazado_64" data-name="Trazado 64" d="M1151.015,572.779c-5.37-3.5-6.844-3.476-8.409-2.589s-7.334,9.165-4.755,11.746,23.033,4.423,23.033,4.423l.461-1.251S1156.384,576.281,1151.015,572.779Zm-9.609,8.247c-1.193-1.189,1.776-6.145,3.13-7.2.345-.195,14.106,8.562,16.026,11.552C1152.881,584.547,1142.516,582.013,1141.405,581.026Z" transform="translate(-1137.196 -569.688)" fill="#82c7e6"/>
          </g>
          <path id="Rectángulo_2" data-name="Rectángulo 2" d="M2.64,0h0A2.641,2.641,0,0,1,5.282,2.641V4.875A2.641,2.641,0,0,1,2.641,7.516h0A2.641,2.641,0,0,1,0,4.875V2.64A2.64,2.64,0,0,1,2.64,0Z" transform="translate(51.947 13.035)" fill="#82c7e6"/>
          <path id="Trazado_65" data-name="Trazado 65" d="M1035.167,679.5l-93.573-.28a4.062,4.062,0,0,0-4.026,4.672l1.448,9.549,4.69-.01,2.827,48.051a4.863,4.863,0,0,0,4.854,4.579h74.686l3.106-52.808,4.418-.009Z" transform="translate(-937.521 -662.677)" fill="#a01069"/>
          <path id="Trazado_67" data-name="Trazado 67" d="M1194.886,753.232h-57.327l-3.07-65.566H1202.6l-2.856,61.007A4.826,4.826,0,0,1,1194.886,753.232Z" transform="translate(-1104.737 -669.845)" fill="#bc157c"/>
          <path id="Trazado_68" data-name="Trazado 68" d="M1178.971,693.425l-73.941.2-1.688-14.226,72.433.277a4.06,4.06,0,0,1,4.029,4.422Z" transform="translate(-1078.295 -662.824)" fill="#bc157c"/>
          <path id="Trazado_69" data-name="Trazado 69" d="M1114.516,772.475l70.524-.2-68.287,3.728Z" transform="translate(-1087.781 -741.677)" fill="#a01069"/>
          <rect id="Rectángulo_3" data-name="Rectángulo 3" width="1.962" height="14.051" transform="translate(54.482 16.682)" fill="#82c7e6"/>
          <rect id="Rectángulo_4" data-name="Rectángulo 4" width="2.453" height="52.818" transform="translate(60.173 30.667)" fill="#82c7e6"/>
        </g>
        <g id="Grupo_14" data-name="Grupo 14" transform="translate(1.802 22.769)">
          <path id="Trazado_70" data-name="Trazado 70" d="M951.07,472.917a159.136,159.136,0,0,0,17.274,5.666c1.769.47,4.7,1.809,6.326.617a1.927,1.927,0,0,0,.7-2.544c-.912-1.816-3.73-1.946-5.513-2.421-5.433-1.448-11.512-3.343-17.545-5.615a2.258,2.258,0,0,0-2.772,1.525,2.285,2.285,0,0,0,1.526,2.772Z" transform="translate(-949.453 -468.508)" fill="#def0f8"/>
        </g>
        <g id="Grupo_15" data-name="Grupo 15" transform="translate(38.805)">
          <path id="Trazado_71" data-name="Trazado 71" d="M1200.838,334.915c-1.927-14.756-1.8-14.795-2.619-16.187a1.982,1.982,0,0,0-3.586.42c-.447,1.633-.345,1.372,1.74,16.891a2.316,2.316,0,0,0,2.794,1.67,2.357,2.357,0,0,0,1.671-2.794Z" transform="translate(-1194.418 -317.772)" fill="#def0f8"/>
        </g>
        <g id="Grupo_16" data-name="Grupo 16" transform="translate(64.806 4.997)">
          <path id="Trazado_72" data-name="Trazado 72" d="M1370.7,364.893a34.127,34.127,0,0,0,3.7-6.31c.937-2.077,2.653-5.136,1.044-7.194a1.7,1.7,0,0,0-1.681-.473c-2.182.753-2.6,3.813-3.47,5.726a40.449,40.449,0,0,1-3.418,5.965,2.25,2.25,0,0,0,.769,3.055,2.278,2.278,0,0,0,3.055-.769Z" transform="translate(-1366.55 -350.852)" fill="#def0f8"/>
        </g>
        <g id="Grupo_17" data-name="Grupo 17" transform="translate(87.948 27.057)">
          <path id="Trazado_73" data-name="Trazado 73" d="M1533.605,500.092a1.98,1.98,0,0,0-.67-2.661c-1.6-1.192-4.415-.092-6.158.388a39.051,39.051,0,0,0-5.9,2.194,2.266,2.266,0,0,0-.847,3.063,2.3,2.3,0,0,0,3.063.847C1530.435,500.866,1531.975,502.329,1533.605,500.092Z" transform="translate(-1519.754 -496.895)" fill="#def0f8"/>
        </g>
      </g>
    </g>
  </g>
</svg>
