<svg xmlns="http://www.w3.org/2000/svg" width="308.781" height="168.785" viewBox="0 0 308.781 168.785">
  <g id="Grupo_285" data-name="Grupo 285" transform="translate(-178 5179)">
    <path id="Trazado_6682" data-name="Trazado 6682" d="M154.839-82.636A25.884,25.884,0,0,0,155-91.5a27.646,27.646,0,0,0-3.482-9.794,27.647,27.647,0,0,0-6.921-7.756,26.365,26.365,0,0,0-9.671-4.648,26.044,26.044,0,0,0-14.914.42c-.866.287-1.7.622-2.52.98,16.923,7.042,30.132,17.414,37.348,29.662" transform="translate(331.475 -4993.085)" fill="#003d8d"/>
    <path id="Trazado_6683" data-name="Trazado 6683" d="M117.492-112.3a27.319,27.319,0,0,0-9.7,7.11,4.611,4.611,0,0,0-.9,4.456,4.276,4.276,0,0,0,3.242,3.022l.126.032q2.817.722,4.838-2.035a10.872,10.872,0,0,1,5.134-4.387,10.449,10.449,0,0,1,6.8-.455,10.419,10.419,0,0,1,6.622,4.965,10.42,10.42,0,0,1,1.177,8.193,112.051,112.051,0,0,1-6.514,19.278q-3.5,7.5-7.763,11.371a17.858,17.858,0,0,1-9.52,4.649,29.946,29.946,0,0,1-11.78-.887A5.523,5.523,0,0,0,94.059-55.7a9.22,9.22,0,0,0-3.088,4.826L88.98-43.085a6.512,6.512,0,0,0,.721,5.092A6.428,6.428,0,0,0,93.8-34.9l39.1,10a6.766,6.766,0,0,0,5.321-.765,6.768,6.768,0,0,0,3.226-4.3l1.885-7.375a6.712,6.712,0,0,0-.768-5.306,6.8,6.8,0,0,0-4.306-3.209l-17.95-4.589q.885.226,4.118-.87a51.025,51.025,0,0,0,7.615-3.467,57.66,57.66,0,0,0,8.92-6.066,47.31,47.31,0,0,0,8.2-8.678,32.321,32.321,0,0,0,5.279-11.281c.155-.608.282-1.214.4-1.82-7.217-12.248-20.425-22.62-37.348-29.662" transform="translate(331.475 -4993.085)" fill="#003d8d"/>
    <path id="Trazado_6684" data-name="Trazado 6684" d="M153.3-85.235a25.883,25.883,0,0,0,.16-8.864,27.646,27.646,0,0,0-3.482-9.794,27.647,27.647,0,0,0-6.921-7.756,26.365,26.365,0,0,0-9.671-4.648,26.035,26.035,0,0,0-14.914.42c-.866.287-1.7.622-2.52.98,16.923,7.041,30.132,17.414,37.348,29.662" transform="translate(331.475 -4993.085)" fill="#ffab00"/>
    <path id="Trazado_6685" data-name="Trazado 6685" d="M115.957-114.9a27.307,27.307,0,0,0-9.7,7.11,4.611,4.611,0,0,0-.9,4.456,4.275,4.275,0,0,0,3.242,3.021l.126.033q2.817.722,4.838-2.035a10.872,10.872,0,0,1,5.134-4.387,10.442,10.442,0,0,1,6.795-.455,10.421,10.421,0,0,1,6.622,4.964A10.421,10.421,0,0,1,133.287-94a112.066,112.066,0,0,1-6.514,19.279q-3.5,7.5-7.763,11.371a17.865,17.865,0,0,1-9.52,4.649,29.929,29.929,0,0,1-11.78-.888A5.526,5.526,0,0,0,92.524-58.3a9.222,9.222,0,0,0-3.088,4.825l-1.991,7.788a6.512,6.512,0,0,0,.721,5.092,6.431,6.431,0,0,0,4.1,3.089l39.1,10a6.766,6.766,0,0,0,5.321-.765,6.77,6.77,0,0,0,3.226-4.3l1.885-7.375a6.715,6.715,0,0,0-.768-5.307,6.8,6.8,0,0,0-4.306-3.208l-17.95-4.59q.885.228,4.118-.869a51.129,51.129,0,0,0,7.615-3.467,57.661,57.661,0,0,0,8.92-6.066,47.309,47.309,0,0,0,8.205-8.678,32.329,32.329,0,0,0,5.279-11.281c.155-.608.282-1.214.4-1.82-7.217-12.248-20.425-22.621-37.348-29.662" transform="translate(331.475 -4993.085)" fill="#ffbb2d"/>
    <path id="Trazado_6686" data-name="Trazado 6686" d="M-16.177-22.785a79.327,79.327,0,0,1-42.6-12.343h-8.731a84,84,0,0,0,52.061,18,84,84,0,0,0,52.061-18H26.422a79.328,79.328,0,0,1-42.6,12.343" transform="translate(331.475 -4993.085)" fill="#003d8d"/>
    <path id="Trazado_6687" data-name="Trazado 6687" d="M-16.177-181.473a79.431,79.431,0,0,1,57.788,24.832h6.82a84.178,84.178,0,0,0-63.877-29.274,84.176,84.176,0,0,0-63.877,29.274h5.358a79.431,79.431,0,0,1,57.788-24.832" transform="translate(331.475 -4993.085)" fill="#003d8d"/>
    <path id="Trazado_6688" data-name="Trazado 6688" d="M53.317-101.915A69.139,69.139,0,0,1-15.822-32.776,69.139,69.139,0,0,1-84.96-101.915a69.139,69.139,0,0,1,69.138-69.139,69.139,69.139,0,0,1,69.139,69.139" transform="translate(331.475 -4993.085)" fill="#ffab00"/>
    <path id="Trazado_6689" data-name="Trazado 6689" d="M-136.986-106.171a1.649,1.649,0,0,1,1.1.4,1.549,1.549,0,0,1,.553,1.028,1.6,1.6,0,0,1-.418,1.244,1.525,1.525,0,0,1-1.168.5h-6.235a1.649,1.649,0,0,1-1.211-.5,1.649,1.649,0,0,1-.5-1.211v-21.81a1.852,1.852,0,0,1,.562-1.36,1.843,1.843,0,0,1,1.35-.562h2.536a1.845,1.845,0,0,1,1.35.562,1.852,1.852,0,0,1,.562,1.36v19.84a.476.476,0,0,0,.149.356.487.487,0,0,0,.351.144Z" transform="translate(331.475 -4993.085)" fill="#003d8d"/>
    <path id="Trazado_6690" data-name="Trazado 6690" d="M-122.464-128.433a1.383,1.383,0,0,1,.951.361,1.448,1.448,0,0,1,.481.908l2.825,22.588a1.44,1.44,0,0,1-.351,1.12,1.325,1.325,0,0,1-1.042.465h-3.527a1.354,1.354,0,0,1-.922-.345,1.4,1.4,0,0,1-.471-.884l-.249-1.951h-5.17l-.5,2.018a1.588,1.588,0,0,1-.553.841,1.488,1.488,0,0,1-.946.321,1.449,1.449,0,0,1-1.2-.576,1.534,1.534,0,0,1-.288-1.335l5.6-22.435a1.483,1.483,0,0,1,.519-.793,1.394,1.394,0,0,1,.884-.3Zm-6.677,19.082h3.978l-1.327-10.6Z" transform="translate(331.475 -4993.085)" fill="#003d8d"/>
    <path id="Trazado_6691" data-name="Trazado 6691" d="M-99.874-108.876a3.051,3.051,0,0,1,2.033.746,2.866,2.866,0,0,1,1.021,1.9,2.962,2.962,0,0,1-.773,2.3A2.815,2.815,0,0,1-99.75-103h-11.523a3.047,3.047,0,0,1-2.237-.923,3.051,3.051,0,0,1-.923-2.238v-40.3a3.423,3.423,0,0,1,1.038-2.513,3.4,3.4,0,0,1,2.495-1.039h4.688a3.4,3.4,0,0,1,2.494,1.039,3.42,3.42,0,0,1,1.039,2.513V-109.8a.874.874,0,0,0,.275.656.9.9,0,0,0,.648.267Z" transform="translate(331.475 -4993.085)" fill="#003d8d"/>
    <path id="Trazado_6692" data-name="Trazado 6692" d="M-81.117-139.4a1.084,1.084,0,0,0,.337.808,1.127,1.127,0,0,0,.817.328h2.929a2.84,2.84,0,0,1,2.086.861,2.839,2.839,0,0,1,.862,2.086,2.817,2.817,0,0,1-.862,2.069,2.84,2.84,0,0,1-2.086.861h-2.929a1.112,1.112,0,0,0-.817.337,1.113,1.113,0,0,0-.337.817v21.217a1.091,1.091,0,0,0,.337.8,1.112,1.112,0,0,0,.817.337h2.929a2.844,2.844,0,0,1,2.086.861,2.841,2.841,0,0,1,.862,2.087,2.817,2.817,0,0,1-.862,2.068,2.84,2.84,0,0,1-2.086.861H-88.947a3.79,3.79,0,0,1-2.77-1.145,3.766,3.766,0,0,1-1.154-2.778V-146.09a3.773,3.773,0,0,1,1.154-2.769,3.776,3.776,0,0,1,2.77-1.155h11.913a2.837,2.837,0,0,1,2.086.862,2.837,2.837,0,0,1,.862,2.086A2.817,2.817,0,0,1-74.948-145a2.84,2.84,0,0,1-2.086.861h-2.929a1.113,1.113,0,0,0-.817.338,1.111,1.111,0,0,0-.337.816Z" transform="translate(331.475 -4993.085)" fill="#003d8d"/>
    <path id="Trazado_6693" data-name="Trazado 6693" d="M-40.122-150.014a2.842,2.842,0,0,1,2.282,1.083,2.845,2.845,0,0,1,.524,2.468L-47.1-107.3a5.7,5.7,0,0,1-2.041,3.107,5.507,5.507,0,0,1-3.48,1.19H-55.5a5.471,5.471,0,0,1-3.472-1.19A5.719,5.719,0,0,1-61-107.3l-9.57-38.226a3.649,3.649,0,0,1,.683-3.134,3.4,3.4,0,0,1,2.832-1.358h4.3a3.5,3.5,0,0,1,2.21.754,3.682,3.682,0,0,1,1.305,1.98l8.132,32.527,8.238-32.953a3.076,3.076,0,0,1,.995-1.633,2.774,2.774,0,0,1,1.757-.675" transform="translate(331.475 -4993.085)" fill="#003d8d"/>
    <path id="Trazado_6694" data-name="Trazado 6694" d="M-20.6-150.014a2.553,2.553,0,0,1,1.758.666,2.68,2.68,0,0,1,.888,1.678l5.22,41.741a2.655,2.655,0,0,1-.648,2.069,2.447,2.447,0,0,1-1.927.861h-6.516a2.505,2.505,0,0,1-1.7-.639,2.585,2.585,0,0,1-.87-1.634l-.462-3.6h-9.552l-.923,3.728a2.917,2.917,0,0,1-1.021,1.554,2.742,2.742,0,0,1-1.749.6,2.678,2.678,0,0,1-2.219-1.066,2.84,2.84,0,0,1-.533-2.467l10.351-41.458a2.729,2.729,0,0,1,.959-1.464,2.565,2.565,0,0,1,1.633-.56Zm-12.339,35.261h7.35l-2.45-19.582Z" transform="translate(331.475 -4993.085)" fill="#003d8d"/>
    <path id="Trazado_6695" data-name="Trazado 6695" d="M4.481-150.014a14.168,14.168,0,0,1,7.386,1.989,15.065,15.065,0,0,1,5.317,5.318,14.188,14.188,0,0,1,1.98,7.394v17.63a14.209,14.209,0,0,1-1.98,7.387,14.958,14.958,0,0,1-5.317,5.317A14.208,14.208,0,0,1,4.481-103H-5.977a4.092,4.092,0,0,1-3-1.243,4.09,4.09,0,0,1-1.242-3V-145.77a4.1,4.1,0,0,1,1.242-3,4.091,4.091,0,0,1,3-1.242Zm8.806,35.261v-23.506a5.663,5.663,0,0,0-1.722-4.156,5.662,5.662,0,0,0-4.155-1.722H2.918a1.328,1.328,0,0,0-.976.409,1.325,1.325,0,0,0-.408.975v32.492a1.327,1.327,0,0,0,.408.976,1.349,1.349,0,0,0,.994.409H7.41a5.662,5.662,0,0,0,4.155-1.722,5.662,5.662,0,0,0,1.722-4.155" transform="translate(331.475 -4993.085)" fill="#003d8d"/>
    <path id="Trazado_6696" data-name="Trazado 6696" d="M47.286-147.066a2.84,2.84,0,0,1,.861-2.086,2.842,2.842,0,0,1,2.086-.861,2.823,2.823,0,0,1,2.069.861,2.84,2.84,0,0,1,.861,2.086v31.018a12.639,12.639,0,0,1-1.758,6.569,13.276,13.276,0,0,1-4.723,4.723A12.639,12.639,0,0,1,40.113-103H38.48a14.191,14.191,0,0,1-7.4-1.98,15.052,15.052,0,0,1-5.318-5.318,14.155,14.155,0,0,1-1.988-7.386v-28.78a3.427,3.427,0,0,1,1.038-2.513,3.4,3.4,0,0,1,2.5-1.038H32a3.4,3.4,0,0,1,2.495,1.038,3.428,3.428,0,0,1,1.039,2.513v31.71a5.658,5.658,0,0,0,1.722,4.155,5.66,5.66,0,0,0,4.154,1.722,5.662,5.662,0,0,0,4.155-1.722,5.662,5.662,0,0,0,1.722-4.155Z" transform="translate(331.475 -4993.085)" fill="#003d8d"/>
    <path id="Trazado_6697" data-name="Trazado 6697" d="M87.161-132.383a17.147,17.147,0,0,1-1.376,6.853A17.828,17.828,0,0,1,82-119.919a17.415,17.415,0,0,1-8.807,4.776l5.558,8.344a2.473,2.473,0,0,1,.1,2.557A2.237,2.237,0,0,1,76.721-103a2.467,2.467,0,0,1-2.041-1.083l-5.149-7.723v5.22a2.388,2.388,0,0,1-.018.3.584.584,0,0,1-.018.143.744.744,0,0,1-.035.23,2.356,2.356,0,0,1-.2.657.613.613,0,0,1-.053.142.055.055,0,0,1-.017.036,1.905,1.905,0,0,1-.178.337,1.66,1.66,0,0,1-.16.231,3.107,3.107,0,0,1-.834.834,1.694,1.694,0,0,1-.231.16,1.915,1.915,0,0,1-.338.178.075.075,0,0,1-.053.017.4.4,0,0,1-.124.054,2.634,2.634,0,0,1-.657.195.835.835,0,0,1-.231.036.633.633,0,0,1-.142.017,2.4,2.4,0,0,1-.3.018H61.363a2.69,2.69,0,0,1-.3-.018.62.62,0,0,1-.142-.017.835.835,0,0,1-.231-.036,2.622,2.622,0,0,1-.657-.195.393.393,0,0,1-.16-.071,2.56,2.56,0,0,1-.355-.178,1.579,1.579,0,0,1-.231-.16,3.093,3.093,0,0,1-.834-.834,1.505,1.505,0,0,1-.16-.231,1.842,1.842,0,0,1-.178-.337.05.05,0,0,1-.017-.036.667.667,0,0,1-.054-.142,2.322,2.322,0,0,1-.195-.657c-.012-.071-.024-.148-.035-.23a.539.539,0,0,1-.018-.143,2.389,2.389,0,0,1-.018-.3v-39.824a2.848,2.848,0,0,1,.018-.32.356.356,0,0,1,.018-.124l.035-.249a2.581,2.581,0,0,1,.195-.657c.024-.047.047-.1.071-.16a1.81,1.81,0,0,1,.178-.337,1.224,1.224,0,0,1,.16-.249,3.107,3.107,0,0,1,.834-.834,1.66,1.66,0,0,1,.231-.16,2.559,2.559,0,0,1,.355-.178c.047-.023.1-.047.16-.071a2.664,2.664,0,0,1,.657-.195c.083-.011.16-.024.231-.035a.57.57,0,0,1,.142-.018,2.692,2.692,0,0,1,.3-.018h8.168a16.963,16.963,0,0,1,10.156,3.232,17.336,17.336,0,0,1,3.941,3.834,17.369,17.369,0,0,1,2.61,4.91,17.308,17.308,0,0,1,.923,5.655m-9.321,8.309a11.634,11.634,0,0,0,2.53-3.737,11.5,11.5,0,0,0,.914-4.572,11.417,11.417,0,0,0-.8-4.261,12.081,12.081,0,0,0-2.646-4.049c-.26-.26-.539-.514-.834-.763a11.321,11.321,0,0,0-7.475-2.681v23.507a11.7,11.7,0,0,0,3.16-.426,11.579,11.579,0,0,0,5.149-3.018" transform="translate(331.475 -4993.085)" fill="#003d8d"/>
    <path id="Trazado_6698" data-name="Trazado 6698" d="M105.572-150.014a2.553,2.553,0,0,1,1.758.666,2.68,2.68,0,0,1,.888,1.678l5.22,41.741a2.655,2.655,0,0,1-.648,2.069,2.447,2.447,0,0,1-1.927.861h-6.516a2.505,2.505,0,0,1-1.7-.639,2.585,2.585,0,0,1-.87-1.634l-.462-3.6H91.759l-.923,3.728a2.917,2.917,0,0,1-1.021,1.554,2.742,2.742,0,0,1-1.749.6,2.678,2.678,0,0,1-2.219-1.066,2.84,2.84,0,0,1-.533-2.467L95.665-147.99a2.729,2.729,0,0,1,.959-1.464,2.565,2.565,0,0,1,1.633-.56ZM93.233-114.753h7.35l-2.45-19.582Z" transform="translate(331.475 -4993.085)" fill="#003d8d"/>
    <path id="Trazado_6699" data-name="Trazado 6699" d="M-105.428-82.98a16.168,16.168,0,0,1-1.3,6.46,16.817,16.817,0,0,1-3.573,5.29,16.4,16.4,0,0,1-8.3,4.5l5.239,7.867a2.332,2.332,0,0,1,.092,2.409,2.11,2.11,0,0,1-2,1.172,2.325,2.325,0,0,1-1.925-1.021l-4.854-7.28v4.92a2.33,2.33,0,0,1-.016.285.566.566,0,0,1-.017.134.69.69,0,0,1-.033.217,2.28,2.28,0,0,1-.184.62.764.764,0,0,1-.051.134.051.051,0,0,1-.016.033,1.759,1.759,0,0,1-.168.318,1.525,1.525,0,0,1-.151.217,2.928,2.928,0,0,1-.786.787,1.534,1.534,0,0,1-.218.151,1.721,1.721,0,0,1-.318.167.065.065,0,0,1-.05.017.386.386,0,0,1-.117.05,2.429,2.429,0,0,1-.619.184.779.779,0,0,1-.218.034.558.558,0,0,1-.134.016,2.319,2.319,0,0,1-.284.017h-4.318a2.631,2.631,0,0,1-.285-.017.564.564,0,0,1-.134-.016.767.767,0,0,1-.217-.034,2.424,2.424,0,0,1-.62-.184.352.352,0,0,1-.15-.067,2.322,2.322,0,0,1-.335-.167,1.594,1.594,0,0,1-.218-.151,2.928,2.928,0,0,1-.786-.787,1.524,1.524,0,0,1-.151-.217,1.693,1.693,0,0,1-.167-.318.048.048,0,0,1-.017-.033.686.686,0,0,1-.05-.134,2.212,2.212,0,0,1-.184-.62c-.011-.067-.023-.139-.033-.217a.52.52,0,0,1-.018-.134,2.33,2.33,0,0,1-.016-.285V-96.2a2.772,2.772,0,0,1,.016-.3.351.351,0,0,1,.018-.117c.01-.078.022-.156.033-.234a2.477,2.477,0,0,1,.184-.62c.022-.044.044-.094.067-.15a1.693,1.693,0,0,1,.167-.318,1.224,1.224,0,0,1,.151-.234,2.928,2.928,0,0,1,.786-.787,1.594,1.594,0,0,1,.218-.151,2.321,2.321,0,0,1,.335-.167c.044-.022.094-.044.15-.067a2.465,2.465,0,0,1,.62-.184l.217-.033a.518.518,0,0,1,.134-.017,2.631,2.631,0,0,1,.285-.017h7.7a15.992,15.992,0,0,1,9.574,3.046,16.317,16.317,0,0,1,3.715,3.615A16.4,16.4,0,0,1-106.3-88.31a16.306,16.306,0,0,1,.87,5.33m-8.787,7.833a10.964,10.964,0,0,0,2.385-3.523,10.863,10.863,0,0,0,.862-4.31A10.764,10.764,0,0,0-111.721-87a11.38,11.38,0,0,0-2.494-3.816q-.369-.367-.787-.719a10.666,10.666,0,0,0-7.046-2.527V-71.9a11.016,11.016,0,0,0,2.979-.4,10.911,10.911,0,0,0,4.854-2.845" transform="translate(331.475 -4993.085)" fill="#003d8d"/>
    <path id="Trazado_6700" data-name="Trazado 6700" d="M-88.628-89.59a1.02,1.02,0,0,0,.318.761,1.062,1.062,0,0,0,.77.31h2.761a2.681,2.681,0,0,1,1.967.812A2.677,2.677,0,0,1-82-85.741a2.658,2.658,0,0,1-.811,1.95,2.681,2.681,0,0,1-1.967.812H-87.54a1.049,1.049,0,0,0-.77.318,1.048,1.048,0,0,0-.318.77v20a1.029,1.029,0,0,0,.318.753,1.049,1.049,0,0,0,.77.318h2.761a2.681,2.681,0,0,1,1.967.812A2.677,2.677,0,0,1-82-58.042a2.659,2.659,0,0,1-.811,1.95,2.681,2.681,0,0,1-1.967.812h-11.23a3.574,3.574,0,0,1-2.611-1.08,3.554,3.554,0,0,1-1.088-2.619V-95.9a3.564,3.564,0,0,1,1.088-2.611A3.562,3.562,0,0,1-96.009-99.6h11.23a2.681,2.681,0,0,1,1.967.812A2.679,2.679,0,0,1-82-96.82a2.658,2.658,0,0,1-.811,1.949,2.677,2.677,0,0,1-1.967.812H-87.54a1.049,1.049,0,0,0-.77.318,1.049,1.049,0,0,0-.318.77Z" transform="translate(331.475 -4993.085)" fill="#003d8d"/>
    <path id="Trazado_6701" data-name="Trazado 6701" d="M-49.3-68.921c.011.123.017.251.017.385a1.828,1.828,0,0,1-.084.552A14.437,14.437,0,0,1-53.375-59.4,13.5,13.5,0,0,1-61.9-55.331,13.857,13.857,0,0,1-69.459-56.8a14,14,0,0,1-5.465-5.038,13.365,13.365,0,0,1-2.058-7.28V-85.44a13.917,13.917,0,0,1,1.824-7,14.271,14.271,0,0,1,4.9-5.13A13.489,13.489,0,0,1-63.325-99.6a13.839,13.839,0,0,1,9.991,4.067,13.912,13.912,0,0,1,2.6,3.6,2.375,2.375,0,0,1-.109,2.326,2.169,2.169,0,0,1-1.983,1.088,2.343,2.343,0,0,1-2.26-1.69,5.515,5.515,0,0,0-1.355-2.226,5.557,5.557,0,0,0-3.883-1.623A5.479,5.479,0,0,0-64.3-92.3,5.593,5.593,0,0,0-65.9-88.318v21.773a5.643,5.643,0,0,0,1.457,3.858,5.406,5.406,0,0,0,3.715,1.849,5.535,5.535,0,0,0,4.2-1.514,5.3,5.3,0,0,0,1.707-4.008h-2.762a2.677,2.677,0,0,1-1.966-.812,2.659,2.659,0,0,1-.812-1.95,2.677,2.677,0,0,1,.812-1.966,2.677,2.677,0,0,1,1.966-.812h4.938a.352.352,0,0,1,.117.017h.067a.048.048,0,0,0,.033-.017h.7a2.346,2.346,0,0,1,1.732.719,2.368,2.368,0,0,1,.712,1.724,2.909,2.909,0,0,1-.017.318Z" transform="translate(331.475 -4993.085)" fill="#003d8d"/>
    <path id="Trazado_6702" data-name="Trazado 6702" d="M-26.547-99.6a2.41,2.41,0,0,1,1.657.628,2.524,2.524,0,0,1,.836,1.582l4.921,39.347a2.5,2.5,0,0,1-.611,1.95,2.308,2.308,0,0,1-1.816.812H-27.7a2.363,2.363,0,0,1-1.607-.6,2.442,2.442,0,0,1-.82-1.54l-.435-3.4h-9l-.87,3.514a2.757,2.757,0,0,1-.963,1.465,2.586,2.586,0,0,1-1.648.561,2.522,2.522,0,0,1-2.092-1.005,2.677,2.677,0,0,1-.5-2.326l9.757-39.08a2.568,2.568,0,0,1,.9-1.38,2.415,2.415,0,0,1,1.539-.528ZM-38.179-66.36h6.929l-2.31-18.46Z" transform="translate(331.475 -4993.085)" fill="#003d8d"/>
    <path id="Trazado_6703" data-name="Trazado 6703" d="M.392-60.821a2.874,2.874,0,0,1,1.917.7,2.7,2.7,0,0,1,.962,1.791,2.788,2.788,0,0,1-.728,2.167,2.654,2.654,0,0,1-2.034.879H-10.353a2.872,2.872,0,0,1-2.109-.871,2.87,2.87,0,0,1-.87-2.108V-96.252a3.229,3.229,0,0,1,.979-2.368A3.207,3.207,0,0,1-10-99.6h4.418a3.207,3.207,0,0,1,2.352.979,3.229,3.229,0,0,1,.979,2.368v34.561a.827.827,0,0,0,.259.619.848.848,0,0,0,.611.251Z" transform="translate(331.475 -4993.085)" fill="#003d8d"/>
    <path id="Trazado_6704" data-name="Trazado 6704" d="M6.422-85.741a13.374,13.374,0,0,1,1.867-6.971A14.184,14.184,0,0,1,13.3-97.725,13.351,13.351,0,0,1,20.263-99.6a13.342,13.342,0,0,1,6.971,1.874,14.293,14.293,0,0,1,5.013,5.013,13.342,13.342,0,0,1,1.874,6.971v16.619a13.351,13.351,0,0,1-1.874,6.962,14.2,14.2,0,0,1-5.013,5.013,13.382,13.382,0,0,1-6.971,1.866A13.391,13.391,0,0,1,13.3-57.147,14.087,14.087,0,0,1,8.289-62.16a13.383,13.383,0,0,1-1.867-6.962Zm20.536,23.3a5.341,5.341,0,0,0,1.624-3.917V-88.52a5.338,5.338,0,0,0-1.624-3.916,5.34,5.34,0,0,0-3.917-1.623,5.339,5.339,0,0,0-3.916,1.623A5.337,5.337,0,0,0,17.5-88.52v22.159a5.34,5.34,0,0,0,1.623,3.917,5.339,5.339,0,0,0,3.916,1.623,5.34,5.34,0,0,0,3.917-1.623" transform="translate(331.475 -4993.085)" fill="#003d8d"/>
    <path id="Trazado_6705" data-name="Trazado 6705" d="M65.135-99.582a2.793,2.793,0,0,1,2.159.728,2.642,2.642,0,0,1,.887,2.033v37.64a3.745,3.745,0,0,1-1.147,2.762,3.767,3.767,0,0,1-2.753,1.138H59.8a3.776,3.776,0,0,1-2.209-.686,3.916,3.916,0,0,1-1.439-1.841L46.323-84.034a.21.21,0,0,0-.117-.084.147.147,0,0,0-.126.025.146.146,0,0,0-.058.126v25.925a2.622,2.622,0,0,1-.887,2.016,2.791,2.791,0,0,1-2.159.728,2.675,2.675,0,0,1-1.8-.962,2.872,2.872,0,0,1-.695-1.9V-95.7a3.774,3.774,0,0,1,1.138-2.754A3.749,3.749,0,0,1,44.382-99.6H48.85a3.788,3.788,0,0,1,2.21.686A3.939,3.939,0,0,1,52.5-97.072L62.34-70.846a.15.15,0,0,0,.1.1.172.172,0,0,0,.134-.025.138.138,0,0,0,.067-.126V-96.7a2.9,2.9,0,0,1,.695-1.916,2.684,2.684,0,0,1,1.8-.962" transform="translate(331.475 -4993.085)" fill="#003d8d"/>
    <path id="Trazado_6706" data-name="Trazado 6706" d="M93.283-99.6a2.41,2.41,0,0,1,1.657.628,2.524,2.524,0,0,1,.836,1.582L100.7-58.042a2.5,2.5,0,0,1-.611,1.95,2.308,2.308,0,0,1-1.816.812H92.128a2.363,2.363,0,0,1-1.607-.6,2.442,2.442,0,0,1-.82-1.54l-.435-3.4h-9l-.87,3.514a2.757,2.757,0,0,1-.963,1.465,2.586,2.586,0,0,1-1.648.561,2.522,2.522,0,0,1-2.092-1.005,2.677,2.677,0,0,1-.5-2.326l9.757-39.08a2.568,2.568,0,0,1,.9-1.38,2.415,2.415,0,0,1,1.539-.528ZM81.651-66.36H88.58L86.27-84.82Z" transform="translate(331.475 -4993.085)" fill="#003d8d"/>
    <path id="Trazado_6707" data-name="Trazado 6707" d="M-134.922-166.693c-1.856,5.376-2.7,8.676-2.413,11.242l.337,1.541c.714,2.147,2.422,4.13,5.216,6.978l2.187,2.2a20.234,20.234,0,0,1,1.033-7.639c1.367-6.163-.506-8.446-6.36-14.319m-5.765,16.479-1.55-.34c-2.567-.285-5.865.558-11.238,2.414,5.873,5.853,8.156,7.727,14.318,6.36a20.244,20.244,0,0,1,7.64-1.033l-2.2-2.187c-2.845-2.792-4.827-4.5-6.973-5.214m8.463,10.1a21.346,21.346,0,0,0-5.538.794l-.785.187c-1.317.379-2.795.861-4.477,1.442,6.1,6.079,8.326,7.865,15.05,6.187a23.717,23.717,0,0,1,6.26-.869l.669.031-2.219-2.21c-3.441-3.378-5.62-5.17-8.354-5.532Zm5.36-4.724c.363,2.734,2.155,4.912,5.532,8.354l2.21,2.219-.031-.669,0,0a23.816,23.816,0,0,1,.873-6.256c1.679-6.724-.108-8.952-6.187-15.05-.581,1.681-1.062,3.16-1.441,4.476l-.187.786a21.41,21.41,0,0,0-.794,5.542Zm-13.156-10.136c-1.4-5.825-2.949-7.246-11.111-9.376,2.131,8.161,3.552,9.71,9.379,11.11a10.269,10.269,0,0,1,1.907.427l.32.067-.067-.318a10.381,10.381,0,0,1-.428-1.91" transform="translate(331.475 -4993.085)" fill="#ffab00" fill-rule="evenodd"/>
    <path id="Trazado_6708" data-name="Trazado 6708" d="M-24.9-98.972a2.4,2.4,0,0,0-1.656-.627h-6.9a2.418,2.418,0,0,0-1.54.527,2.577,2.577,0,0,0-.9,1.38l-9.757,39.08a2.679,2.679,0,0,0,.5,2.327,2.525,2.525,0,0,0,2.092,1,2.586,2.586,0,0,0,1.648-.561,2.752,2.752,0,0,0,.963-1.464l.87-3.515h9l.435,3.4a2.442,2.442,0,0,0,.82,1.539,2.36,2.36,0,0,0,1.607.6h6.142a2.3,2.3,0,0,0,1.816-.812,2.5,2.5,0,0,0,.611-1.95l-4.92-39.347a2.527,2.527,0,0,0-.838-1.582M-38.188-66.361l4.619-18.46,2.31,18.46Z" transform="translate(331.475 -4993.085)" fill="#006bb5"/>
    <path id="Trazado_6709" data-name="Trazado 6709" d="M27.208-97.725a13.329,13.329,0,0,0-6.97-1.874,13.341,13.341,0,0,0-6.962,1.874,14.2,14.2,0,0,0-5.014,5.012A13.388,13.388,0,0,0,6.4-85.741v16.618A13.4,13.4,0,0,0,8.262-62.16a14.093,14.093,0,0,0,5.014,5.013,13.391,13.391,0,0,0,6.962,1.866,13.379,13.379,0,0,0,6.97-1.866,14.187,14.187,0,0,0,5.013-5.013A13.355,13.355,0,0,0,34.1-69.123V-85.741a13.349,13.349,0,0,0-1.875-6.972,14.29,14.29,0,0,0-5.013-5.012m1.347,31.364a5.338,5.338,0,0,1-1.623,3.917,5.34,5.34,0,0,1-3.917,1.623A5.336,5.336,0,0,1,19.1-62.444a5.338,5.338,0,0,1-1.623-3.917V-88.52A5.336,5.336,0,0,1,19.1-92.436a5.333,5.333,0,0,1,3.916-1.624,5.337,5.337,0,0,1,3.917,1.624,5.336,5.336,0,0,1,1.623,3.916Z" transform="translate(331.475 -4993.085)" fill="#006bb5"/>
    <path id="Trazado_6710" data-name="Trazado 6710" d="M94.929-98.972a2.4,2.4,0,0,0-1.656-.627h-6.9a2.418,2.418,0,0,0-1.54.527,2.577,2.577,0,0,0-.9,1.38l-9.757,39.08a2.679,2.679,0,0,0,.5,2.327,2.525,2.525,0,0,0,2.092,1,2.586,2.586,0,0,0,1.648-.561,2.752,2.752,0,0,0,.963-1.464l.87-3.515h9l.435,3.4a2.442,2.442,0,0,0,.82,1.539,2.36,2.36,0,0,0,1.607.6H98.26a2.3,2.3,0,0,0,1.816-.812,2.5,2.5,0,0,0,.611-1.95L95.767-97.39a2.527,2.527,0,0,0-.838-1.582M81.641-66.361l4.619-18.46,2.31,18.46Z" transform="translate(331.475 -4993.085)" fill="#006bb5"/>
    <path id="Trazado_6711" data-name="Trazado 6711" d="M-58.938-104.188A5.474,5.474,0,0,0-55.467-103h2.876a5.51,5.51,0,0,0,3.48-1.189,5.7,5.7,0,0,0,2.042-3.107l1.235-4.944a146.3,146.3,0,0,0-14.034,7.111,5.778,5.778,0,0,0,.93.94" transform="translate(331.475 -4993.085)" fill="#006bb5"/>
    <path id="Trazado_6712" data-name="Trazado 6712" d="M-40.286-104.064A2.677,2.677,0,0,0-38.067-103a2.743,2.743,0,0,0,1.75-.6,2.911,2.911,0,0,0,1.02-1.553l.924-3.729h9.551l.462,3.6a2.592,2.592,0,0,0,.87,1.634,2.5,2.5,0,0,0,1.7.639h6.516a2.45,2.45,0,0,0,1.927-.861,2.649,2.649,0,0,0,.647-2.068l-2.11-16.869q-5.826,1.468-11.351,3.2l.607,4.847H-32.9l.716-2.862q-3.3,1.149-6.464,2.386l-2.172,8.7a2.849,2.849,0,0,0,.533,2.468" transform="translate(331.475 -4993.085)" fill="#006bb5"/>
    <path id="Trazado_6713" data-name="Trazado 6713" d="M-8.928-104.242a4.085,4.085,0,0,0,3,1.243H4.53a14.2,14.2,0,0,0,7.385-1.98,14.947,14.947,0,0,0,5.319-5.317,14.217,14.217,0,0,0,1.979-7.386v-11.027c-.482.048-.962.094-1.445.145q-2.23.238-4.432.518v13.293a5.662,5.662,0,0,1-1.722,4.155,5.662,5.662,0,0,1-4.155,1.722H2.986a1.353,1.353,0,0,1-1-.408,1.33,1.33,0,0,1-.408-.977v-16.023q-6,1.051-11.754,2.374v16.668a4.086,4.086,0,0,0,1.243,3" transform="translate(331.475 -4993.085)" fill="#006bb5"/>
    <path id="Trazado_6714" data-name="Trazado 6714" d="M25.8-110.3a15.049,15.049,0,0,0,5.317,5.318,14.193,14.193,0,0,0,7.4,1.979h1.633a12.649,12.649,0,0,0,6.57-1.757,13.266,13.266,0,0,0,4.722-4.723,12.63,12.63,0,0,0,1.759-6.569v-13.657q-2.913-.132-5.878-.188v15.14A5.662,5.662,0,0,1,45.6-110.6a5.658,5.658,0,0,1-4.154,1.722,5.662,5.662,0,0,1-4.155-1.722,5.662,5.662,0,0,1-1.722-4.155v-15.053q-5.805.189-11.754.673v11.451A14.156,14.156,0,0,0,25.8-110.3" transform="translate(331.475 -4993.085)" fill="#006bb5"/>
    <path id="Trazado_6715" data-name="Trazado 6715" d="M57.813-106.283a.576.576,0,0,0,.018.142c.012.083.023.159.035.231a2.41,2.41,0,0,0,.195.657.745.745,0,0,0,.053.142.056.056,0,0,0,.018.035,1.9,1.9,0,0,0,.178.337,1.458,1.458,0,0,0,.16.231,3.111,3.111,0,0,0,.834.835,1.629,1.629,0,0,0,.231.159,2.356,2.356,0,0,0,.355.178.392.392,0,0,0,.16.071,2.637,2.637,0,0,0,.657.2.864.864,0,0,0,.23.035.59.59,0,0,0,.143.018,2.942,2.942,0,0,0,.3.017h4.581a2.611,2.611,0,0,0,.3-.017.576.576,0,0,0,.142-.018.878.878,0,0,0,.232-.035,2.662,2.662,0,0,0,.657-.2.408.408,0,0,0,.124-.053.072.072,0,0,0,.053-.018,1.813,1.813,0,0,0,.337-.178,1.629,1.629,0,0,0,.231-.159,3.1,3.1,0,0,0,.835-.835,1.682,1.682,0,0,0,.159-.231,1.774,1.774,0,0,0,.177-.337.048.048,0,0,0,.018-.035.63.63,0,0,0,.053-.142,2.31,2.31,0,0,0,.2-.657.721.721,0,0,0,.036-.231.628.628,0,0,0,.018-.142,2.629,2.629,0,0,0,.017-.3v-5.22l5.149,7.723A2.467,2.467,0,0,0,76.74-103a2.237,2.237,0,0,0,2.121-1.243,2.469,2.469,0,0,0-.1-2.556l-5.557-8.345a17.394,17.394,0,0,0,8.805-4.776A17.812,17.812,0,0,0,85.79-125.5q-2.915-.652-5.938-1.216a11.529,11.529,0,0,1-1.993,2.644,11.575,11.575,0,0,1-5.15,3.019,11.7,11.7,0,0,1-3.16.426v-7.689q-5.733-.725-11.754-1.127v22.86a2.416,2.416,0,0,0,.018.3" transform="translate(331.475 -4993.085)" fill="#006bb5"/>
    <path id="Trazado_6716" data-name="Trazado 6716" d="M85.85-104.064A2.677,2.677,0,0,0,88.069-103a2.743,2.743,0,0,0,1.75-.6,2.911,2.911,0,0,0,1.02-1.553l.924-3.729h9.551l.462,3.6a2.592,2.592,0,0,0,.87,1.634,2.5,2.5,0,0,0,1.7.639h6.516a2.45,2.45,0,0,0,1.927-.861,2.649,2.649,0,0,0,.647-2.068l-1.35-10.792a109.814,109.814,0,0,0-12.369-4.939l.865,6.906h-7.35l2.075-8.291q-2.691-.793-5.5-1.5l-4.5,18.015a2.849,2.849,0,0,0,.533,2.468" transform="translate(331.475 -4993.085)" fill="#006bb5"/>
    <path id="Trazado_6717" data-name="Trazado 6717" d="M-82.808-56.093A2.658,2.658,0,0,0-82-58.043a2.68,2.68,0,0,0-.811-1.967,2.682,2.682,0,0,0-1.967-.811h-2.762a1.049,1.049,0,0,1-.77-.318,1.033,1.033,0,0,1-.318-.753V-79.146c-3.929,6.612-5.725,13.489-4.99,20.385a28.586,28.586,0,0,0,.6,3.48h8.241a2.683,2.683,0,0,0,1.967-.812" transform="translate(331.475 -4993.085)" fill="#006bb5"/>
    <path id="Trazado_6718" data-name="Trazado 6718" d="M-84.775-82.98a2.679,2.679,0,0,0,1.967-.812A2.662,2.662,0,0,0-82-85.742a2.668,2.668,0,0,0-.528-1.625Q-84.46-85.2-86.08-82.98Z" transform="translate(331.475 -4993.085)" fill="#006bb5"/>
    <path id="Trazado_6719" data-name="Trazado 6719" d="M-49.277-69.458a2.371,2.371,0,0,0-.711-1.724,2.352,2.352,0,0,0-1.733-.72h-.7a.048.048,0,0,1-.034.017h-.066a.414.414,0,0,0-.118-.017h-4.937a2.676,2.676,0,0,0-1.966.812,2.677,2.677,0,0,0-.812,1.967,2.657,2.657,0,0,0,.812,1.95,2.675,2.675,0,0,0,1.966.811h2.761a5.3,5.3,0,0,1-1.706,4.009,5.536,5.536,0,0,1-4.2,1.514,5.41,5.41,0,0,1-3.716-1.849A5.642,5.642,0,0,1-65.9-66.546V-88.32A5.6,5.6,0,0,1-64.291-92.3a5.49,5.49,0,0,1,3.968-1.758,5.565,5.565,0,0,1,3.882,1.624,5.506,5.506,0,0,1,1.356,2.226,2.343,2.343,0,0,0,2.259,1.691,2.17,2.17,0,0,0,1.983-1.088,2.375,2.375,0,0,0,.109-2.327,13.885,13.885,0,0,0-2.594-3.6A13.839,13.839,0,0,0-63.319-99.6a13.486,13.486,0,0,0-6.929,2.025,14.271,14.271,0,0,0-4.9,5.13,13.914,13.914,0,0,0-1.824,7v16.318a13.361,13.361,0,0,0,2.058,7.28,14.007,14.007,0,0,0,5.465,5.038A13.859,13.859,0,0,0-61.9-55.332,13.505,13.505,0,0,0-53.37-59.4a14.438,14.438,0,0,0,4.009-8.586,1.86,1.86,0,0,0,.084-.552c0-.134-.007-.262-.018-.385v-.218a2.9,2.9,0,0,0,.018-.318" transform="translate(331.475 -4993.085)" fill="#006bb5"/>
    <path id="Trazado_6720" data-name="Trazado 6720" d="M.389-60.821H-1.385A.849.849,0,0,1-2-61.072a.829.829,0,0,1-.26-.619V-96.252a3.222,3.222,0,0,0-.978-2.368,3.21,3.21,0,0,0-2.352-.98H-10a3.206,3.206,0,0,0-2.352.98,3.227,3.227,0,0,0-.979,2.368v37.991a2.869,2.869,0,0,0,.871,2.109,2.869,2.869,0,0,0,2.108.871H.506a2.649,2.649,0,0,0,2.033-.879,2.79,2.79,0,0,0,.728-2.168,2.706,2.706,0,0,0-.961-1.791,2.88,2.88,0,0,0-1.917-.7" transform="translate(331.475 -4993.085)" fill="#006bb5"/>
    <path id="Trazado_6721" data-name="Trazado 6721" d="M65.14-99.583a2.685,2.685,0,0,0-1.8.963,2.894,2.894,0,0,0-.695,1.916V-70.9a.139.139,0,0,1-.066.126.169.169,0,0,1-.134.025.147.147,0,0,1-.1-.1L52.5-97.072a3.928,3.928,0,0,0-1.439-1.841,3.779,3.779,0,0,0-2.209-.687H44.387a3.75,3.75,0,0,0-2.762,1.147A3.767,3.767,0,0,0,40.487-95.7v37.54a2.871,2.871,0,0,0,.695,1.9,2.681,2.681,0,0,0,1.8.963,2.8,2.8,0,0,0,2.159-.728,2.625,2.625,0,0,0,.887-2.017V-83.968a.145.145,0,0,1,.059-.125.146.146,0,0,1,.125-.026.219.219,0,0,1,.117.084l9.824,26.226a3.936,3.936,0,0,0,1.44,1.841,3.779,3.779,0,0,0,2.209.687h4.486A3.767,3.767,0,0,0,67.04-56.42a3.75,3.75,0,0,0,1.147-2.761v-37.64a2.641,2.641,0,0,0-.888-2.034,2.8,2.8,0,0,0-2.159-.728" transform="translate(331.475 -4993.085)" fill="#006bb5"/>
  </g>
</svg>
